<svg width="300" height="300" viewBox="0 0 300 300" fill="none" xmlns="http://www.w3.org/2000/svg">
<rect width="300" height="300" fill="url(#paint0_linear_2_8)"/>
<path d="M100.261 39.1884H226.522C231.1 39.1884 234.812 42.8999 234.812 47.4783V252.812C234.812 257.39 231.1 261.101 226.522 261.101H73.4783C68.8999 261.101 65.1884 257.39 65.1884 252.812V74.2608C65.1884 54.8909 80.8909 39.1884 100.261 39.1884Z" fill="white"/>
<path d="M100.261 39.1884H226.522C231.1 39.1884 234.812 42.8999 234.812 47.4783V252.812C234.812 257.39 231.1 261.101 226.522 261.101H73.4783C68.8999 261.101 65.1884 257.39 65.1884 252.812V74.2608C65.1884 54.8909 80.8909 39.1884 100.261 39.1884Z" stroke="black" stroke-width="6.37681"/>
<path d="M114.807 150.558V152.768H98.439V150.558H99.1071C100.426 150.558 101.471 150.318 102.242 149.839C103.03 149.342 103.424 148.323 103.424 146.781V120.983C103.424 119.51 103.021 118.55 102.216 118.105C101.411 117.643 100.375 117.411 99.1071 117.411H98.439V115.201H113.214C115.424 115.201 117.342 115.45 118.97 115.947C120.597 116.443 121.942 117.171 123.004 118.131C125.111 120.015 126.164 122.705 126.164 126.199C126.164 127.758 125.916 129.257 125.419 130.696C124.94 132.118 124.143 133.385 123.03 134.499C121.916 135.595 120.46 136.477 118.661 137.145C116.863 137.813 114.661 138.147 112.058 138.147H108.743V147.038C108.743 148.494 109.137 149.445 109.925 149.89C110.713 150.336 111.758 150.558 113.06 150.558H114.807ZM112.315 117.72H108.743V135.655H111.544C114.747 135.655 117.034 134.944 118.404 133.522C119.792 132.083 120.486 129.711 120.486 126.405C120.486 124.931 120.34 123.655 120.049 122.576C119.758 121.48 119.287 120.572 118.636 119.852C117.334 118.431 115.227 117.72 112.315 117.72ZM166.131 133.933C166.131 139.809 164.701 144.383 161.84 147.655C160.418 149.299 158.636 150.567 156.495 151.458C154.354 152.331 151.853 152.768 148.992 152.768H132.881V150.558H133.549C134.868 150.558 135.913 150.318 136.684 149.839C137.472 149.342 137.866 148.323 137.866 146.781V120.983C137.866 119.51 137.463 118.55 136.658 118.105C135.853 117.643 134.817 117.411 133.549 117.411H132.881V115.201H148.992C154.422 115.201 158.636 116.829 161.634 120.084C164.632 123.338 166.131 127.955 166.131 133.933ZM143.185 117.822V150.096H147.759C151.921 150.096 155.056 148.7 157.163 145.907C159.253 143.149 160.298 139.158 160.298 133.933C160.298 128.709 159.253 124.717 157.163 121.959C155.091 119.201 151.973 117.822 147.81 117.822H143.185ZM192.736 117.822H184.102V133.034H196.796V135.604H184.102V146.781C184.102 148.34 184.496 149.359 185.284 149.839C186.072 150.318 187.117 150.558 188.419 150.558H190.166V152.768H173.798V150.558H174.467C175.768 150.558 176.813 150.336 177.601 149.89C178.389 149.445 178.783 148.494 178.783 147.038V120.983C178.783 119.51 178.381 118.55 177.576 118.105C176.771 117.643 175.734 117.411 174.467 117.411H173.798V115.201H200.316L200.573 124.4H197.849L197.592 122.139C197.455 120.872 197.001 119.835 196.231 119.03C195.46 118.225 194.295 117.822 192.736 117.822Z" fill="#FF0000"/>
<path d="M173.461 197.813C173.432 197.198 173.358 196.261 173.241 195.001C173.153 193.712 173.051 192.276 172.934 190.694C172.816 189.083 172.699 187.384 172.582 185.597C172.465 183.81 172.348 182.125 172.23 180.543C172.143 178.932 172.055 177.496 171.967 176.236C171.879 174.947 171.82 173.995 171.791 173.38C171.762 173.116 171.732 172.662 171.703 172.018C171.703 171.344 171.688 170.641 171.659 169.908C171.63 169.146 171.601 168.443 171.571 167.799C171.571 167.125 171.571 166.656 171.571 166.393C171.981 166.393 172.348 166.48 172.67 166.656C172.992 166.803 173.256 167.066 173.461 167.447C173.52 168.062 173.578 168.941 173.637 170.084C173.725 171.197 173.812 172.486 173.9 173.951C173.988 175.416 174.076 176.983 174.164 178.653C174.281 180.323 174.384 181.979 174.472 183.619C174.56 183.473 174.647 183.341 174.735 183.224C174.823 183.106 174.882 183.033 174.911 183.004C175.233 182.652 175.614 182.242 176.054 181.773C176.493 181.305 176.947 180.821 177.416 180.323C177.914 179.825 178.397 179.342 178.866 178.873C179.364 178.375 179.804 177.936 180.185 177.555C180.595 177.145 180.932 176.822 181.195 176.588C181.459 176.354 181.62 176.236 181.679 176.236L183.349 177.071C182.851 177.511 182.279 178.023 181.635 178.609C180.99 179.195 180.36 179.825 179.745 180.499C179.13 181.144 178.529 181.832 177.943 182.564C177.387 183.268 176.933 183.971 176.581 184.674C176.581 184.703 176.566 184.776 176.537 184.894C176.537 184.981 176.537 185.055 176.537 185.113C176.537 185.143 176.537 185.216 176.537 185.333C176.566 185.421 176.581 185.479 176.581 185.509L186.732 197.33C186.732 197.359 186.732 197.418 186.732 197.506C186.762 197.594 186.776 197.667 186.776 197.726C186.776 198.282 186.483 198.707 185.897 199L174.911 186.344C174.882 186.314 174.838 186.271 174.779 186.212C174.75 186.124 174.706 186.036 174.647 185.948L175.131 194.474C175.131 194.62 175.131 194.898 175.131 195.309C175.16 195.719 175.175 196.173 175.175 196.671C175.204 197.14 175.219 197.594 175.219 198.033C175.248 198.443 175.263 198.722 175.263 198.868C174.882 198.868 174.53 198.795 174.208 198.648C173.886 198.473 173.637 198.194 173.461 197.813ZM190.951 181.949C191.303 181.949 191.596 181.935 191.83 181.905C192.094 181.876 192.313 182.022 192.489 182.345C192.577 183.663 192.68 185.011 192.797 186.388C192.914 187.735 193.031 189.098 193.148 190.475C193.266 191.852 193.339 193.243 193.368 194.649C193.427 196.026 193.441 197.374 193.412 198.692C193.412 198.868 193.368 198.971 193.28 199C193.192 199.059 193.061 199.073 192.885 199.044C192.738 199.044 192.548 199.029 192.313 199C192.108 199 191.874 199.029 191.61 199.088L190.951 181.949ZM188.402 174.083C188.402 173.878 188.417 173.658 188.446 173.424C188.476 173.16 188.534 172.926 188.622 172.721C188.739 172.516 188.871 172.34 189.018 172.193C189.193 172.047 189.398 171.974 189.633 171.974C189.984 171.974 190.336 171.988 190.688 172.018C191.039 172.047 191.376 172.12 191.698 172.237C192.021 172.325 192.284 172.486 192.489 172.721C192.694 172.926 192.797 173.233 192.797 173.644C192.797 174.347 192.533 174.977 192.006 175.533C191.479 176.061 190.834 176.324 190.072 176.324C189.486 176.324 189.062 176.104 188.798 175.665C188.534 175.196 188.402 174.669 188.402 174.083ZM190.951 174.303C190.863 174.303 190.819 174.376 190.819 174.522C190.819 174.669 190.863 174.742 190.951 174.742C191.068 174.742 191.127 174.669 191.127 174.522C191.127 174.376 191.068 174.303 190.951 174.303ZM200.619 183.048C200.355 182.96 199.989 182.931 199.521 182.96C199.081 182.96 198.598 182.989 198.07 183.048C197.572 183.077 197.089 183.121 196.62 183.18C196.151 183.238 195.756 183.268 195.434 183.268C195.287 183.268 195.185 183.062 195.126 182.652C195.097 182.213 195.038 181.627 194.95 180.895L201.146 180.455C201.234 179.43 201.293 178.697 201.322 178.258C201.352 177.818 201.352 177.452 201.322 177.159C201.322 176.837 201.308 176.485 201.278 176.104C201.278 175.694 201.278 175.064 201.278 174.215C202.04 174.098 202.611 174.068 202.992 174.127C203.402 174.156 203.681 174.259 203.827 174.435C203.974 174.61 204.032 174.874 204.003 175.226C204.003 175.548 203.959 175.958 203.871 176.456C203.812 176.954 203.754 177.555 203.695 178.258C203.666 178.961 203.695 179.752 203.783 180.631L209.057 180.455V182.608C208.822 182.608 208.456 182.623 207.958 182.652C207.46 182.682 206.918 182.711 206.332 182.74C205.775 182.77 205.248 182.799 204.75 182.828C204.281 182.857 203.93 182.916 203.695 183.004C203.461 184.059 203.212 185.187 202.948 186.388C202.685 187.589 202.509 188.775 202.421 189.947C202.333 191.119 202.362 192.218 202.509 193.243C202.655 194.239 203.021 195.074 203.607 195.748C204.193 196.393 205.028 196.847 206.112 197.11C207.196 197.345 208.632 197.257 210.419 196.847C210.36 197.286 210.185 197.652 209.892 197.945C209.628 198.209 209.306 198.429 208.925 198.604C208.573 198.751 208.192 198.868 207.782 198.956C207.372 199.015 207.006 199.044 206.684 199.044C205.189 199.044 204.003 198.78 203.124 198.253C202.245 197.696 201.586 196.979 201.146 196.1C200.707 195.221 200.429 194.225 200.312 193.111C200.194 191.969 200.15 190.812 200.18 189.64C200.238 188.468 200.326 187.311 200.443 186.168C200.561 185.025 200.619 183.985 200.619 183.048Z" fill="#FF0000"/>
<defs>
<linearGradient id="paint0_linear_2_8" x1="0" y1="0" x2="294.5" y2="300" gradientUnits="userSpaceOnUse">
<stop offset="0.0520833" stop-color="#FFA800"/>
<stop offset="0.526042" stop-color="#FF0000"/>
<stop offset="1" stop-color="#FF00D6"/>
</linearGradient>
</defs>
</svg>
